<svg xmlns="http://www.w3.org/2000/svg" version="1.1" xmlns:xlink="http://www.w3.org/1999/xlink" xmlns:svgjs="http://svgjs.dev/svgjs" width="1440" height="560" preserveAspectRatio="none" viewBox="0 0 1440 560"><g mask="url(&quot;#SvgjsMask1000&quot;)" fill="none"><rect width="1440" height="560" x="0" y="0" fill="#0e2a47"></rect><path d="M720 679.7C832.44 677.09 953.48 672.56 1032.7 592.7 1111.68 513.07 1115.79 392.17 1116.44 280 1117.09 166.92 1117.66 42.24 1036.37-36.37 955.82-114.26 831.96-108.62 720-103.45 614.84-98.62 511.51-76.9 431.48-8.52 344.5 65.77 278.41 165.86 271.17 280 263.48 400.8 301.97 527.11 392.38 607.62 479.18 684.94 603.79 682.42 720 679.7" fill="#1c538e"></path><path d="M720 538.63C792.75 536.94 871.07 534.01 922.33 482.33 973.44 430.81 976.1 352.58 976.52 280 976.94 206.83 977.31 126.15 924.71 75.29 872.59 24.89 792.45 28.54 720 31.88 651.95 35.01 585.1 49.07 533.31 93.31 477.03 141.38 434.26 206.15 429.58 280 424.61 358.17 449.51 439.9 508.01 491.99 564.17 542.02 644.8 540.39 720 538.63" fill="#2774c6"></path><path d="M720 397.56C753.07 396.79 788.67 395.46 811.97 371.97 835.2 348.55 836.41 312.99 836.6 280 836.79 246.74 836.96 210.07 813.05 186.95 789.36 164.04 752.93 165.7 720 167.22 689.07 168.64 658.68 175.03 635.14 195.14 609.56 216.99 590.12 246.43 587.99 280 585.73 315.53 597.05 352.68 623.64 376.36 649.17 399.1 685.82 398.36 720 397.56" fill="#488fdb"></path></g><defs><mask id="SvgjsMask1000"><rect width="1440" height="560" fill="#ffffff"></rect></mask></defs></svg>