<svg xmlns="http://www.w3.org/2000/svg" version="1.1" xmlns:xlink="http://www.w3.org/1999/xlink" xmlns:svgjs="http://svgjs.dev/svgjs" width="1440" height="560" preserveAspectRatio="none" viewBox="0 0 1440 560"><g mask="url(&quot;#SvgjsMask1000&quot;)" fill="none"><rect width="1440" height="560" x="0" y="0" fill="#0e2a47"></rect><path d="M 0,179 C 57.6,153.4 172.8,41.4 288,51 C 403.2,60.6 460.8,229 576,227 C 691.2,225 748.8,49.4 864,41 C 979.2,32.6 1036.8,185.2 1152,185 C 1267.2,184.8 1382.4,69 1440,40L1440 560L0 560z" fill="#184a7e"></path><path d="M 0,434 C 96,404.4 288,281.8 480,286 C 672,290.2 768,447.8 960,455 C 1152,462.2 1344,348.6 1440,322L1440 560L0 560z" fill="#2264ab"></path></g><defs><mask id="SvgjsMask1000"><rect width="1440" height="560" fill="#ffffff"></rect></mask></defs></svg>