<svg xmlns="http://www.w3.org/2000/svg" version="1.1" xmlns:xlink="http://www.w3.org/1999/xlink" xmlns:svgjs="http://svgjs.dev/svgjs" width="1440" height="560" preserveAspectRatio="none" viewBox="0 0 1440 560"><g mask="url(&quot;#SvgjsMask1011&quot;)" fill="none"><rect width="1440" height="560" x="0" y="0" fill="#0e2a47"></rect><path d="M1086.4753796470686 361.9013060283454L1069.9993629695784 455.3414398711137 1163.4394968123468 471.8174565486039 1179.915513489837 378.3773227058356z" fill="rgba(28, 83, 142, 0.4)" class="triangle-float1"></path><path d="M924.6,232.212C973.287,232.628,1012.821,197.388,1036.975,155.113C1060.91,113.221,1067.046,63.589,1045.653,20.343C1021.529,-28.423,979.007,-72.114,924.6,-72.057C870.263,-72,827.672,-28.306,803.988,20.598C783.258,63.403,791.948,111.902,815.499,153.222C839.327,195.029,876.481,231.801,924.6,232.212" fill="rgba(28, 83, 142, 0.4)" class="triangle-float2"></path><path d="M1111.7815588662488 625.2457215479408L1128.3552066913853 520.6038274882936 1023.7133126317383 504.030179663157 1007.1396648066017 608.6720737228042z" fill="rgba(28, 83, 142, 0.4)" class="triangle-float2"></path><path d="M1282.0069827662908 79.88315387952767L1198.4277296418418 118.85679967433336 1237.4013754366474 202.43605279878244 1320.9806285610964 163.46240700397675z" fill="rgba(28, 83, 142, 0.4)" class="triangle-float3"></path><path d="M697.961,286.628C715.249,286.59,733.141,282.233,742.492,267.692C752.558,252.039,753.811,231.194,743.631,215.615C734.169,201.135,715.249,198.993,697.961,199.543C681.884,200.055,665.891,204.923,657.063,218.369C647.322,233.205,643.968,252.665,653.09,267.889C662.019,282.792,680.588,286.666,697.961,286.628" fill="rgba(28, 83, 142, 0.4)" class="triangle-float2"></path><path d="M1091.21054575423 443.9877098684464L998.2527168295976 320.62850436493704 967.8513402507206 536.9455387930788z" fill="rgba(28, 83, 142, 0.4)" class="triangle-float1"></path><path d="M269.844,188.31C296.26,187.577,314.225,164.827,327.5,141.977C340.86,118.981,351.009,92.453,339.451,68.501C326.496,41.654,299.61,20.887,269.844,22.495C241.923,24.003,224.983,50.536,212.146,75.377C200.632,97.658,194.953,123.005,206.363,145.339C218.823,169.727,242.468,189.07,269.844,188.31" fill="rgba(28, 83, 142, 0.4)" class="triangle-float1"></path><path d="M605.4438365634602 145.65476266173908L610.889628778379 223.53321963069334 724.9844181243509 176.42530282383802z" fill="rgba(28, 83, 142, 0.4)" class="triangle-float2"></path><path d="M368.90635316698473 421.432423967157L429.08073711832645 370.9401205872661 323.25509007281926 305.924696350199z" fill="rgba(28, 83, 142, 0.4)" class="triangle-float2"></path></g><defs><mask id="SvgjsMask1011"><rect width="1440" height="560" fill="#ffffff"></rect></mask><style>
                @keyframes float1 {
                    0%{transform: translate(0, 0)}
                    50%{transform: translate(-10px, 0)}
                    100%{transform: translate(0, 0)}
                }

                .triangle-float1 {
                    animation: float1 5s infinite;
                }

                @keyframes float2 {
                    0%{transform: translate(0, 0)}
                    50%{transform: translate(-5px, -5px)}
                    100%{transform: translate(0, 0)}
                }

                .triangle-float2 {
                    animation: float2 4s infinite;
                }

                @keyframes float3 {
                    0%{transform: translate(0, 0)}
                    50%{transform: translate(0, -10px)}
                    100%{transform: translate(0, 0)}
                }

                .triangle-float3 {
                    animation: float3 6s infinite;
                }
            </style></defs></svg>