<svg xmlns="http://www.w3.org/2000/svg" version="1.1" xmlns:xlink="http://www.w3.org/1999/xlink" xmlns:svgjs="http://svgjs.dev/svgjs" width="1440" height="560" preserveAspectRatio="none" viewBox="0 0 1440 560"><g mask="url(&quot;#SvgjsMask1000&quot;)" fill="none"><rect width="1440" height="560" x="0" y="0" fill="#1e3266"></rect><path d="M1536 560L0 560 L0 357.28Q62.25 299.53, 120 361.79Q131.7 301.49, 192 313.19Q233.31 282.5, 264 323.82Q286.34 274.16, 336 296.51Q364 252.51, 408 280.51Q466.39 266.9, 480 325.3Q506.87 280.17, 552 307.04Q647.33 282.37, 672 377.7Q704.66 290.36, 792 323.02Q844.89 303.91, 864 356.81Q932.38 305.19, 984 373.57Q1003.54 321.12, 1056 340.66Q1077.67 290.33, 1128 312Q1152.38 264.38, 1200 288.77Q1254.55 271.31, 1272 325.86Q1316.65 298.51, 1344 343.17Q1349.12 276.29, 1416 281.41Q1498.43 243.85, 1536 326.28z" fill="#182f5d"></path><path d="M1488 560L0 560 L0 373.6Q36.58 338.19, 72 374.77Q99.72 330.49, 144 358.21Q206.68 348.89, 216 411.57Q294.03 369.6, 336 447.63Q340.24 379.87, 408 384.1Q459.25 315.35, 528 366.6Q592.92 359.52, 600 424.45Q624.75 377.2, 672 401.95Q727.96 385.91, 744 441.87Q765.93 391.8, 816 413.73Q833.11 358.84, 888 375.94Q942.77 310.71, 1008 365.48Q1071.33 356.81, 1080 420.13Q1102.1 370.23, 1152 392.32Q1206.31 326.63, 1272 380.93Q1335.52 372.45, 1344 435.97Q1370.09 390.06, 1416 416.15Q1439.43 367.58, 1488 391.02z" fill="#25467d"></path><path d="M1464 560L0 560 L0 472.02Q34.8 386.82, 120 421.62Q171.54 401.16, 192 452.7Q243.41 432.11, 264 483.51Q277.72 425.23, 336 438.94Q408.93 391.87, 456 464.79Q485.5 422.29, 528 451.79Q585.51 437.31, 600 494.82Q621.35 444.16, 672 465.51Q712.28 385.79, 792 426.08Q840.13 402.2, 864 450.33Q910.6 424.93, 936 471.53Q985.74 449.27, 1008 499.01Q1051.24 470.25, 1080 513.49Q1118.61 432.1, 1200 470.71Q1217.76 416.47, 1272 434.22Q1337.92 380.14, 1392 446.06Q1463.51 445.57, 1464 517.07z" fill="#356cb1"></path><path d="M1512 560L0 560 L0 539.46Q36.79 456.25, 120 493.04Q165.44 466.48, 192 511.91Q263.37 463.28, 312 534.66Q328.39 479.05, 384 495.45Q433.9 473.35, 456 523.25Q483.41 478.66, 528 506.07Q614.36 472.43, 648 558.79Q722.29 513.08, 768 587.36Q781.47 528.83, 840 542.29Q890.48 472.77, 960 523.25Q1011.25 502.5, 1032 553.76Q1062.57 512.33, 1104 542.89Q1115.38 482.27, 1176 493.66Q1219.96 465.63, 1248 509.59Q1299.88 489.47, 1320 541.35Q1333.08 482.43, 1392 495.51Q1468.21 451.72, 1512 527.93z" fill="white"></path></g><defs><mask id="SvgjsMask1000"><rect width="1440" height="560" fill="#ffffff"></rect></mask></defs></svg>