<svg xmlns="http://www.w3.org/2000/svg" version="1.1" xmlns:xlink="http://www.w3.org/1999/xlink" xmlns:svgjs="http://svgjs.dev/svgjs" width="1440" height="560" preserveAspectRatio="none" viewBox="0 0 1440 560"><g mask="url(&quot;#SvgjsMask1020&quot;)" fill="none"><rect width="1440" height="560" x="0" y="0" fill="rgba(81, 46, 95, 1)"></rect><path d="M0,487.754C107.035,507.724,225.776,552.514,319.874,497.734C414.082,442.89,451.404,321.914,469.515,214.42C485.315,120.64,439.232,32.137,413.755,-59.489C391.735,-138.681,367.592,-212.961,330.311,-286.216C281.636,-381.861,257.909,-504.227,162.457,-553.279C65.458,-603.125,-61.064,-587.582,-157.673,-536.984C-249.181,-489.057,-264.587,-365.706,-336.769,-291.812C-415.869,-210.836,-556.965,-191.43,-598.2,-86.008C-640.374,21.813,-617.041,157.055,-548.971,250.707C-483.147,341.269,-354.163,346.771,-251.379,391.154C-167.263,427.476,-90.069,470.95,0,487.754" fill="#351e3e"></path><path d="M1440 963.658C1519.07 951.024 1594.9850000000001 944.256 1671.234 919.807 1772.665 887.284 1896.788 883.405 1959.29 797.152 2022.6779999999999 709.6759999999999 2016.969 585.432 1989.1770000000001 481.04 1962.8400000000001 382.11400000000003 1890.079 303.415 1810.651 238.829 1740.225 181.563 1648.797 169.598 1564.565 135.772 1469.444 97.57299999999998 1380.567-5.909999999999968 1283.541 27.150999999999954 1185.585 60.528999999999996 1180.068 199.149 1123.759 285.975 1077.035 358.02099999999996 999.365 410.13800000000003 980.7919999999999 493.976 961.614 580.543 991.745 667.692 1020.6220000000001 751.524 1052.1779999999999 843.1320000000001 1069.383 958.424 1155.842 1002.158 1242.899 1046.194 1343.661 979.0509999999999 1440 963.658" fill="#6d3e80"></path></g><defs><mask id="SvgjsMask1020"><rect width="1440" height="560" fill="#ffffff"></rect></mask></defs></svg>