<svg xmlns="http://www.w3.org/2000/svg" version="1.1" xmlns:xlink="http://www.w3.org/1999/xlink" xmlns:svgjs="http://svgjs.dev/svgjs" width="1440" height="250" preserveAspectRatio="none" viewBox="0 0 1440 250"><g mask="url(&quot;#SvgjsMask1000&quot;)" fill="none"><rect width="1440" height="250" x="0" y="0" fill="#0e2a47"></rect><path d="M6 250L256 0L377.5 0L127.5 250z" fill="url(&quot;#SvgjsLinearGradient1001&quot;)"></path><path d="M258.6 250L508.6 0L807.1 0L557.1 250z" fill="url(&quot;#SvgjsLinearGradient1001&quot;)"></path><path d="M488.20000000000005 250L738.2 0L961.7 0L711.7 250z" fill="url(&quot;#SvgjsLinearGradient1001&quot;)"></path><path d="M739.8000000000001 250L989.8000000000001 0L1313.8000000000002 0L1063.8000000000002 250z" fill="url(&quot;#SvgjsLinearGradient1001&quot;)"></path><path d="M1395 250L1145 0L1016 0L1266 250z" fill="url(&quot;#SvgjsLinearGradient1002&quot;)"></path><path d="M1164.4 250L914.4000000000001 0L809.4000000000001 0L1059.4 250z" fill="url(&quot;#SvgjsLinearGradient1002&quot;)"></path><path d="M951.8 250L701.8 0L518.8 0L768.8 250z" fill="url(&quot;#SvgjsLinearGradient1002&quot;)"></path><path d="M691.1999999999999 250L441.19999999999993 0L330.19999999999993 0L580.1999999999999 250z" fill="url(&quot;#SvgjsLinearGradient1002&quot;)"></path><path d="M1236.6889453044357 250L1440 46.688945304435634L1440 250z" fill="url(&quot;#SvgjsLinearGradient1001&quot;)"></path><path d="M0 250L203.31105469556437 250L 0 46.688945304435634z" fill="url(&quot;#SvgjsLinearGradient1002&quot;)"></path></g><defs><mask id="SvgjsMask1000"><rect width="1440" height="250" fill="#ffffff"></rect></mask><linearGradient x1="0%" y1="100%" x2="100%" y2="0%" id="SvgjsLinearGradient1001"><stop stop-color="rgba(15, 70, 185, 0.2)" offset="0"></stop><stop stop-opacity="0" stop-color="rgba(15, 70, 185, 0.2)" offset="0.66"></stop></linearGradient><linearGradient x1="100%" y1="100%" x2="0%" y2="0%" id="SvgjsLinearGradient1002"><stop stop-color="rgba(15, 70, 185, 0.2)" offset="0"></stop><stop stop-opacity="0" stop-color="rgba(15, 70, 185, 0.2)" offset="0.66"></stop></linearGradient></defs></svg>