<svg xmlns="http://www.w3.org/2000/svg" version="1.1" xmlns:xlink="http://www.w3.org/1999/xlink" xmlns:svgjs="http://svgjs.dev/svgjs" width="1440" height="560" preserveAspectRatio="none" viewBox="0 0 1440 560"><g mask="url(&quot;#SvgjsMask1000&quot;)" fill="none"><rect width="1440" height="560" x="0" y="0" fill="#0e2a47"></rect><path d="M0 217.61L10 225.46L20 177.16L30 212.66L40 236.14L50 251.21L60 222.74L70 237.14L80 238.16L90 306.83L100 341.36L110 350.87L120 340.26L130 331.39L140 393.57L150 428.25L160 430.16L170 468.08L180 473.37L190 413.4L200 421.36L210 358.11L220 414.63L230 406.52L240 353.25L250 337.46L260 311.49L270 260.92L280 266.01L290 324.79L300 318.49L310 326.24L320 394.23L330 386.96L340 421.75L350 446.8L360 491.43L370 519.37L380 534.14L390 548.91L400 511.57L410 558.55L420 527.3L430 507.97L440 547.93L450 533.7L460 481.23L470 519.97L480 454.15L490 511.56L500 541.25L510 496.4L520 434.54L530 488.14L540 545.58L550 515.37L560 453.22L570 515.16L580 455.36L590 495.22L600 496.24L610 524.04L620 508.99L630 557.8L640 519.02L650 471.06L660 408.57L670 409.09L680 392.78L690 414.16L700 397.99L710 379.68L720 447.65L730 453.68L740 485.51L750 445.69L760 393.2L770 438.72L780 489.67L790 488.96L800 526.74L810 557.13L820 503.26L830 555.43L840 492.13L850 539.81L860 555.64L870 552.36L880 521.93L890 528.13L900 557.16L910 505.03L920 555.6L930 510.67L940 479.87L950 420.35L960 454.47L970 402.2L980 357.1L990 414.76L1000 396.95L1010 439.87L1020 450.51L1030 403.86L1040 368.66L1050 357.21L1060 316.61L1070 289.95L1080 355.35L1090 354.64L1100 328.86L1110 383.28L1120 316.95L1130 257.64L1140 212.07L1150 272.54L1160 313.51L1170 282.72L1180 327.59L1190 394.44L1200 402.05L1210 438.46L1220 498.38L1230 519.27L1240 493.77L1250 542.51L1260 530.33L1270 525.39L1280 541.77L1290 498.82L1300 465.23L1310 430.23L1320 459.16L1330 500.83L1340 472.03L1350 478.33L1360 499.27L1370 469.79L1380 425.55L1390 465.95L1400 517.58L1410 550.48L1420 524.42L1430 494.05L1440 437" stroke="#224b75" stroke-width="2"></path><path d="M0 217.61L10 225.46L20 177.16L30 212.66L40 236.14L50 251.21L60 222.74L70 237.14L80 238.16L90 306.83L100 341.36L110 350.87L120 340.26L130 331.39L140 393.57L150 428.25L160 430.16L170 468.08L180 473.37L190 413.4L200 421.36L210 358.11L220 414.63L230 406.52L240 353.25L250 337.46L260 311.49L270 260.92L280 266.01L290 324.79L300 318.49L310 326.24L320 394.23L330 386.96L340 421.75L350 446.8L360 491.43L370 519.37L380 534.14L390 548.91L400 511.57L410 558.55L420 527.3L430 507.97L440 547.93L450 533.7L460 481.23L470 519.97L480 454.15L490 511.56L500 541.25L510 496.4L520 434.54L530 488.14L540 545.58L550 515.37L560 453.22L570 515.16L580 455.36L590 495.22L600 496.24L610 524.04L620 508.99L630 557.8L640 519.02L650 471.06L660 408.57L670 409.09L680 392.78L690 414.16L700 397.99L710 379.68L720 447.65L730 453.68L740 485.51L750 445.69L760 393.2L770 438.72L780 489.67L790 488.96L800 526.74L810 557.13L820 503.26L830 555.43L840 492.13L850 539.81L860 555.64L870 552.36L880 521.93L890 528.13L900 557.16L910 505.03L920 555.6L930 510.67L940 479.87L950 420.35L960 454.47L970 402.2L980 357.1L990 414.76L1000 396.95L1010 439.87L1020 450.51L1030 403.86L1040 368.66L1050 357.21L1060 316.61L1070 289.95L1080 355.35L1090 354.64L1100 328.86L1110 383.28L1120 316.95L1130 257.64L1140 212.07L1150 272.54L1160 313.51L1170 282.72L1180 327.59L1190 394.44L1200 402.05L1210 438.46L1220 498.38L1230 519.27L1240 493.77L1250 542.51L1260 530.33L1270 525.39L1280 541.77L1290 498.82L1300 465.23L1310 430.23L1320 459.16L1330 500.83L1340 472.03L1350 478.33L1360 499.27L1370 469.79L1380 425.55L1390 465.95L1400 517.58L1410 550.48L1420 524.42L1430 494.05L1440 437L1440 560L0 560z" fill="url(&quot;#SvgjsLinearGradient1001&quot;)"></path></g><defs><mask id="SvgjsMask1000"><rect width="1440" height="560" fill="#ffffff"></rect></mask><linearGradient x1="50%" y1="0%" x2="50%" y2="100%" id="SvgjsLinearGradient1001"><stop stop-opacity="0.65" stop-color="#224b75" offset="0"></stop><stop stop-opacity="0" stop-color="#508dcc" offset="0.8"></stop></linearGradient></defs></svg>