<svg xmlns="http://www.w3.org/2000/svg" version="1.1" xmlns:xlink="http://www.w3.org/1999/xlink" xmlns:svgjs="http://svgjs.dev/svgjs" width="1440" height="560" preserveAspectRatio="none" viewBox="0 0 1440 560"><g mask="url(&quot;#SvgjsMask1000&quot;)" fill="none"><rect width="1440" height="560" x="0" y="0" fill="#0e2a47"></rect><path d="M -727.7640596363931,157 C -631.76,201.8 -439.76,401.2 -247.76405963639303,381 C -55.76,360.8 40.24,58.4 232.23594036360697,56 C 424.24,53.6 520.24,347.2 712.2359403636069,369 C 904.24,390.8 1046.68,177.8 1192.235940363607,165 C 1337.79,152.2 1390.45,277 1440,305" stroke="rgba(51, 121, 194, 0.58)" stroke-width="2"></path><path d="M -842.3830566467025,382 C -746.38,342.6 -554.38,204 -362.3830566467025,185 C -170.38,166 -74.38,271.4 117.61694335329747,287 C 309.62,302.6 405.62,237.8 597.6169433532975,263 C 789.62,288.2 909.14,429.4 1077.6169433532975,413 C 1246.09,396.6 1367.52,227.4 1440,181" stroke="rgba(51, 121, 194, 0.58)" stroke-width="2"></path><path d="M -188.75948892177138,217 C -92.76,233 99.24,297.6 291.2405110782286,297 C 483.24,296.4 579.24,203.6 771.2405110782286,214 C 963.24,224.4 1059.24,347 1251.2405110782286,349 C 1443.24,351 1693.49,211 1731.2405110782286,224 C 1768.99,237 1498.25,376 1440,414" stroke="rgba(51, 121, 194, 0.58)" stroke-width="2"></path><path d="M -943.7880552422778,423 C -847.79,384.8 -655.79,216.8 -463.7880552422778,232 C -271.79,247.2 -175.79,497 16.21194475772222,499 C 208.21,501 304.21,243.6 496.2119447577222,242 C 688.21,240.4 787.45,515 976.2119447577222,491 C 1164.97,467 1347.24,195.8 1440,122" stroke="rgba(51, 121, 194, 0.58)" stroke-width="2"></path></g><defs><mask id="SvgjsMask1000"><rect width="1440" height="560" fill="#ffffff"></rect></mask></defs></svg>